<svg xmlns="http://www.w3.org/2000/svg" width="1097" height="180" fill="none" viewBox="0 0 1097 180"><rect width="366" height="180" fill="#003740"/><rect width="366" height="180" x="365" fill="#008647"/><rect width="366" height="180" x="731" fill="#C7E8D7"/><path stroke="#04AA51" stroke-width="4" d="M365 144C285.471 144 221 79.529 221 0"/><path stroke="#04AA51" stroke-width="4" d="M365 90C315.294 90 275 49.7056 275 0"/><path stroke="#04AA51" stroke-width="4" d="M365 36C345.118 36 329 19.8823 329 0"/><path stroke="#003740" stroke-width="4" d="M731 36C810.529 36 875 100.471 875 180"/><path stroke="#003740" stroke-width="4" d="M731 90C780.706 90 821 130.294 821 180"/><path stroke="#003740" stroke-width="4" d="M731 144C750.882 144 767 160.118 767 180"/><path stroke="#C7E8D7" stroke-width="4" d="M365 36H731"/><path stroke="#C7E8D7" stroke-width="4" d="M365 90H731"/><path stroke="#C7E8D7" stroke-width="4" d="M365 144H731"/><circle cx="321" cy="44" r="19" fill="#04AA51"/></svg>